<mxfile host="app.diagrams.net" modified="2024-06-22T13:11:09.384Z" agent="Mozilla/5.0 (Windows NT 10.0; Win64; x64) AppleWebKit/537.36 (KHTML, like Gecko) Chrome/126.0.0.0 Safari/537.36" version="24.6.1" etag="nCcTFeuF7bpbNDqaFd39" type="github">
  <diagram name="‫עמוד-1‬" id="REpkfy4rE1csVJn17G4d">
    <mxGraphModel>
      <root>
        <mxCell id="0" />
        <mxCell id="1" parent="0" />
      </root>
    </mxGraphModel>
  </diagram>
</mxfile>
